<svg width="23" height="26" viewBox="0 0 23 26" fill="none" xmlns="http://www.w3.org/2000/svg">
<path d="M4.85071 25.5667C3.58736 25.5667 2.34611 25.0746 1.36592 24.0683C0.385738 23.0396 -0.0937196 21.7204 0.01519 20.3339C0.1241 19.0368 0.734099 17.7622 1.75785 16.7111L13.8251 4.32207C14.631 3.49465 15.5894 2.98025 16.526 2.86843C17.5934 2.73426 18.5737 3.11436 19.3578 3.91942C21.9281 6.55822 20.0109 8.52621 18.9653 9.57726L11.1242 17.6502C10.9064 17.8514 10.5794 17.8514 10.3616 17.6502C10.1438 17.4266 10.1438 17.0688 10.3616 16.8452L18.2033 8.79462C19.7062 7.25159 20.1417 6.29009 18.5952 4.70233C18.0289 4.14326 17.3757 3.8971 16.6569 3.96419C15.9598 4.05364 15.2189 4.45619 14.609 5.10471L2.52043 17.4938C1.69272 18.3659 1.16963 19.3945 1.10429 20.4455C1.01716 21.4966 1.36563 22.4806 2.14977 23.2856C3.73985 24.9181 6.22333 24.8287 7.9441 23.0621L20.2507 10.4271C22.4071 8.21314 22.4944 4.99294 20.4687 2.9132C19.4885 1.88452 18.1381 1.32554 16.7223 1.32554C15.2847 1.32554 13.9555 1.88452 12.9535 2.9132L6.8114 9.24177C6.59358 9.46539 6.24484 9.46539 6.02702 9.24177C5.8092 9.01814 5.8092 8.68275 6.02702 8.45912L12.1915 2.13056C13.3895 0.90061 15.0015 0.207397 16.7223 0.207397C18.443 0.207397 20.0328 0.90061 21.2525 2.13056C23.6703 4.61283 23.5618 8.59326 21.035 11.2097L8.70615 23.8447C7.59527 25.0076 6.22297 25.5667 4.85071 25.5667Z" fill="#CBD3D6"/>
</svg>
