<svg width="24" height="24" viewBox="0 0 24 24" fill="none" xmlns="http://www.w3.org/2000/svg">
<g clip-path="url(#clip0_1762_94)">
<path d="M22.6742 0.000976562H1.32462C0.593549 0.000976562 0 0.59334 0 1.32559V22.6752C0 23.4074 0.593549 24.0006 1.32462 24.0006H12.8186V14.7065H9.69121V11.084H12.8186V8.41261C12.8186 5.31328 14.7111 3.62471 17.4765 3.62471C18.8023 3.62471 19.9392 3.72389 20.2708 3.76697V7.00659L18.3526 7.00738C16.849 7.00738 16.5589 7.72225 16.5589 8.77064V11.0828H20.1463L19.6772 14.7049H16.5585V23.9994H22.6738C23.4057 23.9994 23.9996 23.4055 23.9996 22.6752V1.3248C23.9992 0.59334 23.4061 0.000976562 22.6742 0.000976562Z" fill="#F2F4F5"/>
</g>
<defs>
<clipPath id="clip0_1762_94">
<rect width="24.0004" height="24" fill="white"/>
</clipPath>
</defs>
</svg>
