<svg width="24" height="24" viewBox="0 0 24 24" fill="none" xmlns="http://www.w3.org/2000/svg">
<g clip-path="url(#clip0_1762_97)">
<path d="M21.6004 0H2.40037C1.08037 0 0.000366211 1.08 0.000366211 2.4V21.6C0.000366211 22.92 1.08037 24 2.40037 24H21.6004C22.9204 24 24.0004 22.92 24.0004 21.6V2.4C24.0004 1.08 22.9204 0 21.6004 0ZM7.20037 20.4H3.60037V9.6H7.20037V20.4ZM5.40037 7.56C4.20037 7.56 3.24037 6.6 3.24037 5.4C3.24037 4.2 4.20037 3.24 5.40037 3.24C6.60037 3.24 7.56037 4.2 7.56037 5.4C7.56037 6.6 6.60037 7.56 5.40037 7.56ZM20.4004 20.4H16.8004V14.04C16.8004 13.08 15.9604 12.24 15.0004 12.24C14.0404 12.24 13.2004 13.08 13.2004 14.04V20.4H9.60037V9.6H13.2004V11.04C13.8004 10.08 15.1204 9.36 16.2004 9.36C18.4804 9.36 20.4004 11.28 20.4004 13.56V20.4Z" fill="#F2F4F5"/>
</g>
<defs>
<clipPath id="clip0_1762_97">
<rect width="24" height="24" fill="white" transform="translate(0.000366211)"/>
</clipPath>
</defs>
</svg>
