<svg width="91" height="28" viewBox="0 0 91 28" fill="none" xmlns="http://www.w3.org/2000/svg">
<g clip-path="url(#clip0_1762_78)">
<path fill-rule="evenodd" clip-rule="evenodd" d="M9.19353 8.93976C9.86425 9.14217 10.6101 9.4008 11.4312 9.71566C12.2522 10.0305 13.0155 10.4466 13.7209 10.9639C14.4263 11.4811 15.0219 12.1221 15.5076 12.8867C15.9933 13.6514 16.2361 14.596 16.2361 15.7205C16.2361 16.6426 16.0568 17.4859 15.6984 18.2506C15.3399 19.0153 14.8484 19.6675 14.2239 20.2072C13.5994 20.747 12.8478 21.1687 11.9689 21.4723C11.0901 21.7759 10.1302 21.9277 9.08944 21.9277C7.84051 21.9277 6.76505 21.7197 5.86304 21.3036C4.96103 20.8875 4.20937 20.3534 3.60803 19.7012V20.8482C3.60803 21.343 3.35361 21.5904 2.84479 21.5904H0.728543C0.242846 21.5904 0 21.343 0 20.8482V15.2482C0 14.7759 0.242846 14.5398 0.728543 14.5398H3.29579C3.59646 14.5398 3.80462 14.6016 3.92026 14.7253C4.0359 14.849 4.13997 15.0233 4.23249 15.2482C4.55629 16.1028 5.11714 16.7775 5.91508 17.2723C6.71301 17.7671 7.63235 18.0145 8.67314 18.0145C9.59828 18.0145 10.321 17.8233 10.8414 17.441C11.3619 17.0586 11.622 16.5414 11.622 15.8892C11.622 15.4394 11.4948 15.057 11.2404 14.7422C10.9859 14.4273 10.6449 14.1462 10.217 13.8988C9.78908 13.6514 9.28026 13.4209 8.69048 13.2072C8.10071 12.9936 7.45891 12.7855 6.76505 12.5831C4.89164 11.9759 3.37096 11.155 2.20298 10.1205C1.03498 9.08594 0.451003 7.71406 0.451003 6.00482C0.451003 5.08273 0.618682 4.25061 0.954045 3.50843C1.28941 2.76626 1.75197 2.13655 2.34174 1.61928C2.93152 1.10201 3.62537 0.702813 4.4233 0.421687C5.22124 0.140561 6.08275 0 7.00789 0C8.11806 0 9.07788 0.18554 9.88737 0.556626C10.6968 0.927713 11.3907 1.41686 11.9689 2.0241V1.07952C11.9689 0.584737 12.2233 0.337349 12.7322 0.337349H14.8484C15.3573 0.337349 15.6117 0.584737 15.6117 1.07952V6.40964C15.6117 6.90442 15.3573 7.15181 14.8484 7.15181H12.3505C12.073 7.15181 11.8649 7.08996 11.7261 6.96627C11.5873 6.84257 11.4832 6.65703 11.4138 6.40964C11.1594 5.62249 10.7142 5.00402 10.0782 4.55422C9.44215 4.10442 8.66157 3.87952 7.73644 3.87952C6.92694 3.87952 6.28514 4.07068 5.811 4.45301C5.33687 4.83534 5.0998 5.33012 5.0998 5.93735C5.0998 6.36466 5.21544 6.73574 5.44673 7.0506C5.67802 7.36546 5.98446 7.63534 6.36609 7.86024C6.7477 8.08514 7.18714 8.28193 7.6844 8.4506C8.18166 8.61928 8.6847 8.78233 9.19353 8.93976ZM26.719 7.42169C27.6673 7.42169 28.5404 7.59598 29.3383 7.94458C30.1363 8.29317 30.8186 8.78233 31.3852 9.41205C31.9518 10.0418 32.3913 10.8008 32.7035 11.6892C33.0157 12.5775 33.1718 13.5727 33.1718 14.6747C33.1718 15.7542 33.0157 16.7381 32.7035 17.6265C32.3913 18.5149 31.9576 19.2795 31.4026 19.9205C30.8475 20.5614 30.1767 21.0562 29.3904 21.4048C28.604 21.7534 27.7367 21.9277 26.7884 21.9277C25.5626 21.9277 24.4294 21.5904 23.3885 20.9157V24.559C23.3885 24.9414 23.5852 25.1325 23.9783 25.1325H25.7823C26.2218 25.1325 26.4415 25.3462 26.4415 25.7735V27.359C26.4415 27.7863 26.2218 28 25.7823 28H17.699C17.2596 28 17.0399 27.7863 17.0399 27.359V25.7735C17.0399 25.3462 17.2596 25.1325 17.699 25.1325H18.3235C18.7167 25.1325 18.9132 24.9414 18.9132 24.559V11.4699C18.9132 11.0651 18.7167 10.8627 18.3235 10.8627H17.6296C17.1902 10.8627 16.9704 10.6602 16.9704 10.2554V8.4C16.9704 7.97269 17.1902 7.75904 17.6296 7.75904H19.8153C20.5554 7.75904 21.1278 7.85462 21.5325 8.04578C21.9373 8.23695 22.2206 8.56867 22.3825 9.04096C22.9144 8.59116 23.5331 8.20884 24.2386 7.89398C24.9439 7.57911 25.7708 7.42169 26.719 7.42169ZM25.4701 18.3181C26.4415 18.3181 27.222 17.9807 27.8118 17.306C28.4016 16.6313 28.6965 15.7542 28.6965 14.6747C28.6965 13.5727 28.4132 12.69 27.8465 12.0265C27.2799 11.363 26.5109 11.0313 25.5395 11.0313C24.9613 11.0313 24.3947 11.1663 23.8396 11.4361C23.4927 11.6161 23.3192 11.8635 23.3192 12.1783V17.1374C23.3192 17.3173 23.3538 17.4635 23.4233 17.5759C23.4927 17.6884 23.6314 17.8008 23.8396 17.9133C24.3715 18.1831 24.915 18.3181 25.4701 18.3181ZM41.4692 21.9277C40.4052 21.9277 39.4338 21.7534 38.555 21.4048C37.6761 21.0562 36.9187 20.5614 36.2826 19.9205C35.6466 19.2795 35.1551 18.5149 34.8082 17.6265C34.4613 16.7381 34.2878 15.7542 34.2878 14.6747C34.2878 13.5952 34.4554 12.6112 34.7908 11.7229C35.1262 10.8345 35.6061 10.0699 36.2305 9.42892C36.8551 8.78795 37.6068 8.29317 38.4856 7.94458C39.3645 7.59598 40.3359 7.42169 41.3997 7.42169C42.4406 7.42169 43.3946 7.59598 44.2619 7.94458C45.1292 8.29317 45.8694 8.79357 46.4822 9.44578C47.0951 10.098 47.575 10.8739 47.922 11.7735C48.2689 12.6731 48.4423 13.6851 48.4423 14.8096V14.9446C48.4423 15.3494 48.2342 15.5518 47.8179 15.5518H39.1794C38.9019 15.5518 38.7632 15.7092 38.7632 16.0241C38.8094 16.8787 39.0985 17.5422 39.6305 18.0145C40.1624 18.4867 40.7984 18.7229 41.5386 18.7229C42.0937 18.7229 42.5735 18.6161 42.9783 18.4024C43.383 18.1888 43.6779 17.8908 43.8629 17.5084C43.9786 17.306 44.0769 17.1542 44.1579 17.053C44.2387 16.9518 44.3949 16.9012 44.6262 16.9012H47.575C47.76 16.9012 47.9046 16.9462 48.0087 17.0361C48.1128 17.1261 48.1417 17.261 48.0954 17.441C47.7485 18.7904 46.9679 19.8755 45.7537 20.6964C44.5394 21.5173 43.1113 21.9277 41.4692 21.9277ZM43.516 13.1566C43.7704 13.1566 43.8861 13.0329 43.8629 12.7855C43.6779 11.9984 43.3599 11.4474 42.9089 11.1325C42.4579 10.8177 41.9433 10.6602 41.3651 10.6602C40.7869 10.6602 40.2607 10.8177 39.7866 11.1325C39.3124 11.4474 38.9944 11.9984 38.8325 12.7855C38.7632 13.0329 38.8787 13.1566 39.1794 13.1566H43.516ZM62.8108 16.159C63.2272 16.159 63.4006 16.339 63.3312 16.6988C63.1694 17.5309 62.8861 18.2731 62.4813 18.9253C62.0766 19.5775 61.5793 20.1285 60.9895 20.5783C60.3997 21.0281 59.7348 21.3655 58.9947 21.5904C58.2546 21.8153 57.4682 21.9277 56.6356 21.9277C55.5948 21.9277 54.635 21.7534 53.7561 21.4048C52.8772 21.0562 52.1197 20.5671 51.4838 19.9373C50.8477 19.3076 50.3504 18.543 49.992 17.6434C49.6334 16.7438 49.4543 15.7542 49.4543 14.6747C49.4543 13.5952 49.6219 12.6056 49.9573 11.706C50.2927 10.8064 50.7551 10.0418 51.3449 9.41205C51.9347 8.78233 52.6402 8.29317 53.4612 7.94458C54.2823 7.59598 55.1785 7.42169 56.1499 7.42169C56.9825 7.42169 57.7573 7.59036 58.4743 7.92771C59.1913 8.26506 59.7926 8.7261 60.2783 9.31084V8.4C60.2783 7.97269 60.498 7.75904 60.9374 7.75904H62.6027C63.019 7.75904 63.2272 7.97269 63.2272 8.4V12.8193C63.2272 13.2466 63.019 13.4602 62.6027 13.4602H60.0008C59.7695 13.4602 59.6018 13.4153 59.4977 13.3253C59.3937 13.2353 59.3069 13.0779 59.2376 12.853C59.0525 12.3582 58.7518 11.959 58.3356 11.6554C57.9192 11.3518 57.4219 11.2 56.8438 11.2C55.9417 11.2 55.2305 11.5149 54.7101 12.1446C54.1898 12.7743 53.9295 13.6289 53.9295 14.7084C53.9295 15.743 54.1898 16.5751 54.7101 17.2048C55.2305 17.8345 55.9533 18.1494 56.8784 18.1494C58.058 18.1494 58.8675 17.6884 59.3069 16.7663C59.4226 16.5639 59.5209 16.412 59.6018 16.3108C59.6828 16.2096 59.8272 16.159 60.0354 16.159H62.8108ZM79.92 18.7229C80.3595 18.7229 80.5792 18.9365 80.5792 19.3639V20.9494C80.5792 21.3767 80.3595 21.5904 79.92 21.5904H77.4222C76.7515 21.5904 76.2484 21.4386 75.9131 21.1349C75.5777 20.8313 75.2481 20.4096 74.9243 19.8699L72.9121 16.4627C72.7271 16.1478 72.5479 15.951 72.3744 15.8723C72.2009 15.7936 71.9754 15.7542 71.6979 15.7542H71.0734C70.7959 15.7542 70.6572 15.8892 70.6572 16.159V18.1494C70.6572 18.5317 70.8653 18.7229 71.2816 18.7229H71.8714C72.3108 18.7229 72.5305 18.9365 72.5305 19.3639V20.9494C72.5305 21.3767 72.3108 21.5904 71.8714 21.5904H64.9675C64.5281 21.5904 64.3084 21.3767 64.3084 20.9494V19.3639C64.3084 18.9365 64.5281 18.7229 64.9675 18.7229H65.5921C65.9852 18.7229 66.1818 18.5317 66.1818 18.1494V4.04819C66.1818 3.64337 65.9852 3.44096 65.5921 3.44096H64.8982C64.4587 3.44096 64.239 3.23856 64.239 2.83373V0.978313C64.239 0.551002 64.4587 0.337349 64.8982 0.337349H67.9164C68.9572 0.337349 69.6742 0.528512 70.0674 0.910843C70.4606 1.29317 70.6572 1.99036 70.6572 3.00241V12.4482C70.6572 12.7181 70.7959 12.853 71.0734 12.853H71.9754C72.4612 12.853 72.7907 12.8137 72.9642 12.7349C73.1377 12.6562 73.3285 12.4932 73.5366 12.2458L74.4039 11.0988C74.6353 10.7839 74.5428 10.6265 74.1264 10.6265H73.5019C73.0625 10.6265 72.8428 10.4129 72.8428 9.98554V8.4C72.8428 7.97269 73.0625 7.75904 73.5019 7.75904H79.816C80.2554 7.75904 80.4751 7.97269 80.4751 8.4V10.0193C80.4751 10.4466 80.2554 10.6602 79.816 10.6602H79.1569C78.9487 10.6602 78.8041 10.694 78.7232 10.7614C78.6422 10.8289 78.5439 10.9639 78.4283 11.1663L76.8324 13.3928C76.6937 13.5727 76.5606 13.7357 76.4334 13.8819C76.3062 14.0281 76.1501 14.1574 75.9651 14.2699C76.1733 14.3823 76.3468 14.5341 76.4855 14.7253C76.6242 14.9165 76.7862 15.1695 76.9712 15.4843L78.5671 18.1157C78.7058 18.3406 78.8272 18.498 78.9313 18.588C79.0354 18.6779 79.2031 18.7229 79.4344 18.7229H79.92Z" fill="#212129"/>
<path fill-rule="evenodd" clip-rule="evenodd" d="M87.033 21.7C86.0277 21.7 85.1805 21.3576 84.4911 20.673C83.8018 19.9884 83.4572 19.157 83.4572 18.179C83.4572 17.2009 83.8018 16.3766 84.4911 15.7059C85.1805 15.0353 86.0277 14.7 87.033 14.7C88.0382 14.7 88.8926 15.0353 89.5963 15.7059C90.3 16.3766 90.6517 17.2009 90.6517 18.179C90.6517 19.157 90.3 19.9884 89.5963 20.673C88.8926 21.3576 88.0382 21.7 87.033 21.7Z" fill="#BF3939"/>
</g>
<defs>
<clipPath id="clip0_1762_78">
<rect width="91" height="28" fill="white"/>
</clipPath>
</defs>
</svg>
